<svg width="605" height="123" xmlns="http://www.w3.org/2000/svg" overflow="hidden"><defs><clipPath id="a"><path d="M-72 215h605v123H-72z"/></clipPath></defs><g clip-path="url(#a)" transform="translate(72 -215)" fill-rule="evenodd"><path d="M-12.47 227.992c-13.008 0-28.12 5.382-39.025 13.644a.772.772 0 0 1-.296.186l-19.087 14.612c-.056 22.697-.13 50.235-.13 68.599 0 .576.381.96.955.96h16.261c.574 0 .958-.384.958-.96v-67.667c.067-.19.132-.372.2-.586 5.745-4.306 22.742-16.636 36.948-16.805 5.534-.066 8.97 2.322 11.35 6.103 3.047 6.368 3.154 15.068 3.154 23.228v55.727c0 .576.19.96.765.96h16.451c.574 0 .958-.384.958-.96v-56.879c0-29.784-6.314-40.162-29.461-40.162zM27 276.665c0 29.7 25.095 49.31 54.596 49.31 29.118 0 54.404-19.61 54.404-49.31 0-29.51-25.286-49.69-54.404-49.69-29.501 0-54.596 20.18-54.596 49.69zm54.722 43.619c-24.52-1.523-37.864-24.009-36.332-50.473 1.533-22.846 14.63-39.25 36.66-37.727 23.754 1.523 37.284 23.829 35.751 50.292-1.532 22.847-14.816 39.431-36.08 37.908zM362.002 227.974c-.768 0-1.344.774-.768 1.354 9.789 16.435 29.942 47.179 32.629 52.013.192.194.192.581 0 .967l-32.629 43.313c-.576.58 0 1.353.768 1.353h6.909c.384 0 .576 0 .768-.193 10.173-13.922 24.376-33.065 27.831-37.512.576-.58 1.151-.58 1.343.194 3.071 4.64 15.355 24.169 23.032 37.125 0 .193.192.386.576.386h20.345c.768 0 1.344-.773.768-1.353-10.172-17.016-29.942-47.567-32.437-52.207-.192-.387-.192-.774 0-.967l32.629-42.926c.576-.58 0-1.547-.768-1.547h-6.717c-.192 0-.576.194-.768.387l-28.023 37.318c-.576.58-1.151.58-1.343 0l-23.416-37.318c0-.193-.192-.387-.576-.387zM497.994 225.993a44.063 44.063 0 0 0-6.84.496c-12.641 1.723-23.75 6.7-33.327 14.74-.191.191-.384.576-.384.767v8.805a.947.947 0 0 0 1.725.574c7.661-11.678 23.75-20.674 37.731-17.994 13.025 2.489 16.281 15.315 16.856 26.993 0 .191-.193.574-.384.765-20.111 14.741-67.419 13.017-67.419 41.733 0 15.315 12.259 24.12 29.305 24.12.243 0 .483-.01.725-.013 35.243.192 45.254-5.711 50.87-13.262 4.232-5.692 4.979-14.28 5.087-18.278l.011-.01v-1.1c0-.293.004-.515 0-.682v-25.616c0-12.252-.383-30.438-13.215-37.139-5.89-3.302-13.612-4.881-20.741-4.899zm15.063 41.425c.458-.045.889.42.889.995v33.886c-.01.123-.028.236-.035.361-.608 5.395-2.984 17.214-30.434 17.281v-.031c-10.908-.006-17.796-5.939-17.796-17.42 0-22.972 27.963-23.548 46.924-34.843a.745.745 0 0 1 .452-.229z" fill="#0008C1"/><path d="M148.839 215.992c-.518 0-.864.347-.864.865v91.213h5.287c1.455 0 1.446-1.198 1.489-1.492l10.87-80.634c.23-1.494 1.292-1.964 2.563-2.073.044-.006.081-.023.127-.023h.181l.025-.002v.002h15.534c31.481 0 46.074 30.475 45.254 60.616-.492 27.143-17.707 43.962-39.678 43.962h-21.316c-.039 0-.07-.015-.107-.019h-20.229v7.721c0 .518.346.864.864.864h34.727c38.529 0 63.409-25.582 63.409-60.499 0-38.547-26.954-60.501-63.755-60.501h-34.381z" fill="#D5A86D"/><path d="M258.007 277.688c0 29.7 25.095 49.31 54.595 49.31 29.118 0 54.405-19.61 54.405-49.31 0-29.51-25.287-49.691-54.405-49.691-29.5 0-54.595 20.181-54.595 49.691zm54.721 43.619c-24.52-1.523-37.864-24.009-36.331-50.473 1.532-22.846 14.629-39.25 36.659-37.727 23.754 1.523 37.285 23.829 35.752 50.292-1.532 22.847-14.816 39.431-36.08 37.908z" fill="#0008C1"/></g></svg>