<svg xmlns="http://www.w3.org/2000/svg" id="Calque_2" data-name="Calque 2" viewBox="0 0 98.34 59.42"><defs><style>.cls-1{fill:#0e09c1}</style></defs><g id="Calque_1-2" data-name="Calque 1"><path d="M57.07 16.93c4.84-2.76 10.24-4.46 15.79-4.92s11.14.03 15.96 2.47c9.17 4.64 10.67 16.94 4.37 24.6-3.4 4.14-8.4 6.69-13.65 7.48-.28.04-.44.35-.46.6-.25 3.3-.49 6.61-.74 9.91l1.16-.32a46.958 46.958 0 0 0-4.74-6.3c-.71-.8-1.46-1.7-2.48-2.11s-2.2-.26-3.31-.19c-4.71.3-9.59-1.88-12.27-5.82-.45-.66-1.53-.04-1.08.63 2.37 3.49 6.25 5.75 10.41 6.32 1.04.14 2.09.18 3.14.1 1.59-.12 2.77-.1 3.95 1.12 2.01 2.08 3.75 4.43 5.3 6.87.34.54 1.12.3 1.16-.32.25-3.3.49-6.61.74-9.91l-.46.6c10-1.5 18.92-9.65 18.44-20.26-.22-4.91-2.42-9.65-6.42-12.6-4.57-3.37-10.69-4.32-16.24-4.27-6.73.06-13.37 1.88-19.22 5.21-.7.4-.07 1.48.63 1.08Z" class="cls-1"/><path d="M18.73 1.37C8.16 4.51 2.16 15.06.51 25.39c-1 6.2-.64 12.77 2.06 18.52 2.55 5.43 7.17 9.79 12.54 12.39 11.37 5.5 27.24 3.71 36.29-5.45 4.77-4.82 7.02-11.68 7.99-18.26s.04-12.71-3.32-18.29C48.38 1.56 32.51-2.42 18.73 1.37c-.77.21-.45 1.42.33 1.21 11.82-3.25 25.26-.77 33.42 8.87 3.82 4.51 6.05 10.19 6.05 16.12 0 6.32-1.71 13.33-5.09 18.72-6.73 10.72-21.96 13.97-33.51 10.55-5.74-1.7-10.98-5.27-14.38-10.23S.89 35.09 1.34 28.91c.8-10.92 6.5-23 17.72-26.33.77-.23.44-1.44-.33-1.21Z" class="cls-1"/><path d="M27.7.14c-3.25 2.26-5.35 5.76-7.33 9.11-2.34 3.96-3.72 8.43-4.45 12.96-1.33 8.26-.81 16.97 2.09 24.85 1.6 4.35 3.93 8.38 7 11.86.53.6 1.41-.28.88-.88-5.31-6.03-8.23-13.79-9.11-21.72s-.08-16.96 3.53-24.35c.99-2.04 2.26-3.93 3.5-5.82s2.63-3.61 4.51-4.93c.66-.46.03-1.54-.63-1.08ZM30.39 59.23c5.27-5.7 7.6-13.28 8.78-20.81.69-4.39 1.19-8.88 1.06-13.32s-1.18-8.94-2.58-13.25S34.78 3.48 31.58.39c-.58-.56-1.46.32-.88.88 2.82 2.71 4.25 6.38 5.46 10.02 1.36 4.09 2.51 8.27 2.77 12.59.26 4.34-.17 8.72-.78 13.01-.51 3.57-1.23 7.12-2.38 10.54-1.36 4.01-3.37 7.78-6.25 10.9-.55.59.34 1.48.88.88Z" class="cls-1"/><path d="M3.46 18.5c9.24.18 18.5.4 27.68 1.58s17.84 2.87 26.87 1.99c.79-.08.8-1.33 0-1.25-9.03.89-17.95-.84-26.87-1.99-9.18-1.18-18.43-1.39-27.68-1.58-.8-.02-.8 1.23 0 1.25ZM1.31 37.2c18.89-.64 37.81-1.27 56.7-.29.8.04.8-1.21 0-1.25-18.89-.98-37.81-.35-56.7.29-.8.03-.81 1.28 0 1.25Z" class="cls-1"/></g></svg>