<?xml version="1.0" encoding="UTF-8"?>
<svg id="Calque_2" data-name="Calque 2" xmlns="http://www.w3.org/2000/svg" viewBox="0 0 74.54 52.58">
  <defs>
    <style>
      .cls-1 {
        fill: #0e09c1;
      }
    </style>
  </defs>
  <g id="Calque_1-2" data-name="Calque 1">
    <path class="cls-1" d="M6.58,2.63C23.78,1.88,40.98,1,58.2,1.33c3.34,.06,7.45-.28,10.4,1.6,3.31,2.11,3.42,7.4,3.57,10.9,.17,4.08-.15,8.16-.2,12.24s.52,8.05,1.09,12.12c.49,3.52,.46,7.87-2.56,10.34-1.57,1.28-3.65,1.4-5.59,1.5-2.07,.1-4.14,.2-6.21,.3-4.23,.2-8.46,.47-12.69,.46s-8.41-.43-12.62-.6c-4.34-.18-8.68,0-13,.4-3.99,.36-8.46,1.49-12.38,.23-1.61-.52-3.15-1.51-4.06-2.96-1.06-1.71-.9-3.91-1.01-5.85-.25-4.32-.49-8.63-.74-12.95-.23-4.03-.36-8.52-.71-12.3,0,.06-.06-.57-.08-.75-.06-.66-.1-1.32-.12-1.99-.1-3.29-.05-8.1,2.73-10.41,.74-.61,1.64-.91,2.59-.97,.8-.05,.8-1.3,0-1.25C2.13,1.66,.59,6.06,.16,9.88s.11,7.66,.32,11.44c.27,4.65,.53,9.3,.8,13.95,.14,2.41,.28,4.81,.41,7.22,.1,1.79,.04,3.71,.83,5.38,1.43,3.04,4.86,4.42,8.02,4.67,2.3,.18,4.61-.17,6.89-.41s4.57-.46,6.87-.6c4.65-.28,9.27-.12,13.92,.18s9.28,.38,13.94,.18,9.05-.36,13.57-.65c3.51-.23,6.37-1.51,7.85-4.86,1.6-3.63,.84-7.56,.23-11.33-.73-4.47-.63-8.95-.47-13.46s.29-8.73-.48-13.03c-.62-3.5-1.97-6.36-5.51-7.58S59.47,.09,55.7,.04c-4.74-.06-9.48-.05-14.22,.04-9.43,.17-18.85,.6-28.26,1.01-2.21,.1-4.42,.19-6.63,.29-.8,.04-.81,1.29,0,1.25Z"/>
    <path class="cls-1" d="M3.22,4.69c4.81,2.4,8.93,5.88,13.25,9.02,4.54,3.3,9.25,6.37,13.98,9.4,2.09,1.34,4.21,3.24,6.85,2.88,2.3-.31,4.61-1.39,6.65-2.45,4.63-2.39,8.86-5.65,12.99-8.8,4.6-3.52,9.01-7.27,13.24-11.23,.59-.55-.3-1.43-.88-.88-3.6,3.38-7.33,6.61-11.21,9.66s-8,6.19-12.29,8.79c-2.19,1.32-4.48,2.49-6.92,3.25-1.48,.46-2.81,.7-4.24-.05-1.16-.61-2.25-1.42-3.35-2.12-4.46-2.86-8.91-5.74-13.21-8.83C13.41,9.99,9.01,6.19,3.85,3.61c-.72-.36-1.35,.72-.63,1.08h0Z"/>
    <path class="cls-1" d="M22.62,17.09c-3.46,4.43-6.52,9.29-9.4,14.1-3.36,5.6-6.37,11.39-9.06,17.33-.33,.73,.75,1.36,1.08,.63,2.62-5.81,5.56-11.46,8.82-16.94,2.9-4.86,5.96-9.78,9.44-14.24,.49-.63-.39-1.52-.88-.88h0Z"/>
    <path class="cls-1" d="M50.09,19.95c1.99,1.93,3.15,4.48,4.43,6.9,1.41,2.65,2.87,5.27,4.37,7.86,3.01,5.19,6.21,10.26,9.59,15.21,.45,.66,1.53,.04,1.08-.63-3.47-5.08-6.75-10.29-9.83-15.62-1.5-2.6-2.95-5.22-4.35-7.87-1.26-2.38-2.45-4.83-4.41-6.73-.58-.56-1.46,.32-.88,.88h0Z"/>
  </g>
</svg>