<svg xmlns="http://www.w3.org/2000/svg" id="Calque_2" data-name="Calque 2" viewBox="0 0 87.23 57.91"><defs><style>.cls-1{fill:#0e09c1}</style></defs><g id="Calque_1-2" data-name="Calque 1"><path d="M.96 20.51c5.54-3.27 11.07-6.65 17.06-9.04s11.92-3.36 17.61-5.94c2.93-1.33 5.84-3.14 8.95-4.02 3.3-.93 5.81 1.37 8.48 2.94 4.87 2.86 10.11 5.02 15.32 7.18 6.17 2.56 12.35 5.15 17.92 8.86v-1.08c-10.31 6.95-22.03 11.34-33.5 15.95-2.88 1.16-5.8 2.64-8.79 3.51-1.58.46-3.2-.4-4.67-.92-1.6-.56-3.2-1.11-4.79-1.67-5.99-2.09-12.15-3.96-17.64-7.19S6.64 21.8.75 19.47c-.75-.3-1.07.91-.33 1.21 5.58 2.2 10.22 6.08 15.3 9.16 5.4 3.26 11.43 5.18 17.35 7.24 1.52.53 3.04 1.06 4.57 1.59s3.14 1.3 4.74 1.54c1.21.18 2.23-.22 3.34-.66 1.65-.66 3.3-1.33 4.94-1.99 5.82-2.34 11.67-4.63 17.44-7.12 6.53-2.82 12.93-5.97 18.83-9.95.4-.27.4-.81 0-1.08C76.85 12.7 64.9 9.75 54.43 3.8 52.15 2.51 49.86.47 47.2.07c-2.93-.44-5.85 1.36-8.38 2.58-3.15 1.51-6.29 3-9.62 4.04s-6.44 1.73-9.59 2.85C12.78 11.96 6.54 15.77.33 19.43c-.69.41-.06 1.49.63 1.08Z" class="cls-1"/><path d="m16.65 30.82.51 11.46c.13 2.88-.21 6.29 1.56 8.76 1.47 2.05 3.87 3.2 6.19 4.01 2.78.98 5.68 1.67 8.58 2.14 11.77 1.92 24.3 0 34.55-6.25 1.16-.71 2.43-1.36 2.66-2.83.28-1.77.03-3.71.02-5.5l-.12-12.88c0-.8-1.26-.81-1.25 0l.09 10.15c.01 1.57.03 3.14.04 4.7 0 .82.03 1.65.02 2.48 0 1.06-.31 1.65-1.24 2.25-4.66 3.02-9.92 5.08-15.35 6.23s-10.96 1.38-16.44.79c-2.78-.3-5.54-.83-8.24-1.57-2.41-.66-4.96-1.4-6.98-2.92-3.09-2.32-2.7-6.1-2.86-9.58l-.51-11.46c-.04-.8-1.29-.81-1.25 0Z" class="cls-1"/><path d="M43.68 21.57c11.47 1.89 23 3.59 34.63 3.97l-.62-.62c-1 7.84-1.14 15.73-.76 23.62.04.8 1.29.81 1.25 0-.38-7.89-.24-15.78.76-23.62.04-.34-.32-.61-.62-.62-11.53-.38-22.94-2.06-34.3-3.93-.79-.13-1.13 1.07-.33 1.21Z" class="cls-1"/></g></svg>