<svg version="1.2" xmlns="http://www.w3.org/2000/svg" viewBox="0 0 100 100" width="32" height="32"><defs><clipPath clipPathUnits="userSpaceOnUse" id="cp1"><path d="M5-12h605v123H5z"/></clipPath></defs><style>.s0{fill:#0008c1}</style><g id="Clip-Path" clip-path="url(#cp1)"><g id="Layer"><path id="Layer" fill-rule="evenodd" class="s0" d="M94 41.2V98c0 .6-.4 1-1 1H76.6c-.6 0-.8-.4-.8-1V42.3c0-8.2-.1-16.9-3.1-23.2-2.4-3.8-5.9-6.2-11.4-6.1-14.2.1-31.2 12.5-36.9 16.8l-.2.6V98c0 .6-.4 1-1 1H6.9c-.5 0-.9-.4-.9-1 0-18.3.1-45.9.1-68.6l19.1-14.6q.2 0 .3-.2C36.4 6.4 51.5 1 64.5 1 87.7 1 94 11.4 94 41.2zM158.6 0C187.7 0 213 20.2 213 49.7c0 29.7-25.3 49.3-54.4 49.3-29.5 0-54.6-19.6-54.6-49.3C104 20.2 129.1 0 158.6 0zm36.2 55.4c1.5-26.5-12-48.8-35.8-50.3-22-1.5-35.1 14.9-36.6 37.7-1.5 26.5 11.8 49 36.3 50.5 21.3 1.5 34.6-15.1 36.1-37.9zM459.2 1c.3 0 .5.2.5.4l23.4 37.3c.2.6.8.6 1.4 0l28-37.3c.2-.2.6-.4.8-.4h6.7c.8 0 1.3.9.8 1.5l-32.7 42.9c-.2.2-.2.6 0 1 2.5 4.7 22.3 35.2 32.5 52.2.5.6 0 1.4-.8 1.4h-20.3c-.4 0-.6-.2-.6-.4-7.7-13-20-32.5-23-37.1-.2-.8-.8-.8-1.4-.2-3.4 4.4-17.6 23.6-27.8 37.5-.2.2-.4.2-.8.2H439c-.8 0-1.3-.8-.8-1.4l32.7-43.3c.2-.4.2-.8 0-1-2.7-4.8-22.9-35.5-32.7-52-.5-.6 0-1.3.8-1.3zM595.7 3.9C608.6 10.6 609 28.8 609 41l-.1 25.6q.1.3 0 .7v1.1c-.1 4-.8 12.6-5 18.3-5.7 7.6-15.7 13.5-50.9 13.3h-.7c-17.1 0-29.3-8.8-29.3-24.1 0-28.7 47.3-27 67.4-41.8.2-.2.4-.5.4-.7-.6-11.7-3.9-24.5-16.9-27-14-2.7-30.1 6.3-37.7 18-.6.7-1.8.4-1.8-.6V15c0-.2.2-.6.4-.8 9.6-8 20.7-13 33.4-14.7 2.1-.3 4.4-.5 6.8-.5 7.1 0 14.8 1.6 20.7 4.9zm-6.1 36.7c-19 11.3-46.9 11.9-46.9 34.9 0 11.5 6.9 17.4 17.8 17.4 27.4 0 29.8-11.8 30.4-17.2V41.4c0-.6-.4-1-.8-1q-.3 0-.5.2z"/><path id="Layer" fill-rule="evenodd" d="M260.2-11C297-11 324 10.9 324 49.5c0 34.9-24.9 60.5-63.4 60.5h-34.8c-.5 0-.8-.4-.8-.9v-7.7h41.6c22 0 39.2-16.8 39.7-43.9.8-30.2-13.8-60.7-45.2-60.7H245.3l-.1.1c-1.3.1-2.3.5-2.6 2l-10.8 80.7c-.1.3-.1 1.5-1.5 1.5H225v-91.2c0-.6.3-.9.8-.9z" style="fill:#d5a86d"/><path id="Layer" fill-rule="evenodd" class="s0" d="M389.6 1C418.7 1 444 21.2 444 50.7c0 29.7-25.3 49.3-54.4 49.3-29.5 0-54.6-19.6-54.6-49.3C335 21.2 360.1 1 389.6 1zm36.2 55.4c1.5-26.5-12-48.8-35.7-50.3C368 4.6 354.9 21 353.4 43.8c-1.5 26.5 11.8 49 36.3 50.5 21.3 1.5 34.6-15.1 36.1-37.9z"/></g></g></svg>