<svg xmlns="http://www.w3.org/2000/svg" id="Calque_2" data-name="Calque 2" viewBox="0 0 410.83 361.73"><defs><style>.cls-1{fill:#ceb390}.cls-2{fill:#bc906d}.cls-3{fill:#2146af}.cls-4{fill:#0e09a9}</style></defs><g id="Calque_1-2" data-name="Calque 1"><circle cx="384.73" cy="67.44" r="26.1" class="cls-4"/><circle cx="371.69" cy="67.44" r="13.05" class="cls-3"/><circle cx="147.69" cy="222.94" r="26.1" class="cls-4"/><circle cx="134.65" cy="222.94" r="13.05" class="cls-3"/><circle cx="312.46" cy="281.88" r="26.1" class="cls-4"/><circle cx="325.51" cy="281.88" r="13.05" class="cls-3"/><circle cx="338.56" cy="105.98" r="26.1" class="cls-2"/><circle cx="351.6" cy="105.98" r="13.05" class="cls-1"/><circle cx="106.98" cy="132.08" r="26.1" class="cls-2"/><circle cx="106.98" cy="145.12" r="13.05" class="cls-1"/><circle cx="243.71" cy="221.9" r="26.1" class="cls-2"/><circle cx="243.71" cy="208.85" r="13.05" class="cls-1"/><circle cx="225.65" cy="59.36" r="26.1" class="cls-4"/><circle cx="212.6" cy="59.36" r="13.05" class="cls-2"/><circle cx="364.65" cy="157.7" r="26.1" class="cls-4"/><circle cx="351.6" cy="157.7" r="13.05" class="cls-2"/><circle cx="191.52" cy="183.8" r="26.1" class="cls-1"/><circle cx="191.52" cy="196.85" r="13.05" class="cls-4"/><circle cx="279.86" cy="26.1" r="26.1" class="cls-1"/><circle cx="292.91" cy="26.1" r="13.05" class="cls-4"/><circle cx="102.16" cy="264.03" r="26.1" class="cls-1"/><circle cx="102.16" cy="250.98" r="13.05" class="cls-4"/><circle cx="240.72" cy="114.89" r="26.1" class="cls-3"/><circle cx="240.72" cy="101.85" r="13.05" class="cls-1"/><circle cx="217.61" cy="299.05" r="26.1" class="cls-3"/><circle cx="204.56" cy="299.05" r="13.05" class="cls-1"/><circle cx="43.95" cy="231.64" r="26.1" class="cls-3"/><circle cx="56.99" cy="231.64" r="13.05" class="cls-1"/><circle cx="195.64" cy="135.73" r="8.93" class="cls-4"/><circle cx="8.93" cy="261.4" r="8.93" class="cls-4"/><circle cx="273.11" cy="72.4" r="8.93" class="cls-4"/><circle cx="264.18" cy="272.95" r="8.93" class="cls-4"/><circle cx="352.7" cy="307.98" r="8.93" class="cls-4"/><circle cx="199.56" cy="348.78" r="12.95" class="cls-4"/><circle cx="114.69" cy="183.28" r="12.53" class="cls-4"/></g></svg>