<?xml version="1.0" encoding="UTF-8"?>
<svg id="Calque_2" data-name="Calque 2" xmlns="http://www.w3.org/2000/svg" viewBox="0 0 412.66 228.29">
  <defs>
    <style>
      .cls-1 {
        fill: #ceb390;
      }

      .cls-2 {
        fill: #bc906d;
      }

      .cls-3 {
        fill: #2146af;
      }

      .cls-4 {
        fill: #0e09a9;
      }
    </style>
  </defs>
  <g id="Calque_1-2" data-name="Calque 1">
    <path class="cls-4" d="M239.5,112.14c0-18.36-14.41-33.36-32.53-34.31-.99-.05-1.82,.74-1.82,1.74v65.14c0,.99,.83,1.79,1.82,1.74,18.13-.95,32.53-15.95,32.53-34.31Z"/>
    <path class="cls-2" d="M144.83,112.39c0,32.9,25.81,59.77,58.28,61.47,1.78,.09,3.27-1.33,3.27-3.11V54.04c0-1.78-1.49-3.2-3.27-3.11-32.48,1.7-58.28,28.57-58.28,61.47Z"/>
    <path class="cls-1" d="M62.58,82.14c0,43.96,34.49,79.87,77.89,82.14,2.37,.12,4.37-1.78,4.37-4.16V4.16c0-2.38-1.99-4.28-4.37-4.16C97.07,2.27,62.58,38.18,62.58,82.14Z"/>
    <path class="cls-4" d="M164.59,112.39c0,13.45,10.55,24.43,23.83,25.13,.73,.04,1.34-.55,1.34-1.27v-47.71c0-.73-.61-1.31-1.34-1.27-13.28,.69-23.83,11.68-23.83,25.13Z"/>
    <path class="cls-4" d="M106.95,82.39c0,20.62,15.88,37.46,35.87,38.52,1.09,.06,2.01-.84,2.01-1.95V45.82c0-1.11-.92-2.01-2.01-1.95-19.99,1.06-35.87,17.9-35.87,38.52Z"/>
    <circle class="cls-3" cx="82.52" cy="41.14" r="22.28"/>
    <circle class="cls-3" cx="166.03" cy="184.22" r="11.14"/>
    <circle class="cls-3" cx="166.03" cy="41.14" r="11.14"/>
    <circle class="cls-3" cx="11.14" cy="95.39" r="11.14"/>
    <path class="cls-4" d="M378.31,112.39c0,18.36,14.41,33.36,32.53,34.31,.99,.05,1.82-.74,1.82-1.74V79.82c0-.99-.83-1.79-1.82-1.74-18.13,.95-32.53,15.95-32.53,34.31Z"/>
    <path class="cls-4" d="M63.3,95.14c0-18.36-14.41-33.36-32.53-34.31-.99-.05-1.82,.74-1.82,1.74V127.72c0,.99,.83,1.79,1.82,1.74,18.13-.95,32.53-15.95,32.53-34.31Z"/>
    <path class="cls-2" d="M316.75,112.39c0,32.9,25.81,59.77,58.28,61.47,1.78,.09,3.27-1.33,3.27-3.11V54.04c0-1.78-1.49-3.2-3.27-3.11-32.48,1.7-58.28,28.57-58.28,61.47Z"/>
    <path class="cls-1" d="M234.5,146.14c0,43.96,34.49,79.87,77.89,82.14,2.37,.12,4.37-1.78,4.37-4.16V68.16c0-2.38-1.99-4.28-4.37-4.16-43.4,2.27-77.89,38.18-77.89,82.14Z"/>
    <path class="cls-4" d="M336.51,112.39c0,13.45,10.55,24.43,23.83,25.13,.73,.04,1.34-.55,1.34-1.27v-47.71c0-.73-.61-1.31-1.34-1.27-13.28,.69-23.83,11.68-23.83,25.13Z"/>
    <path class="cls-4" d="M278.87,146.39c0,20.62,15.88,37.46,35.87,38.52,1.09,.06,2.01-.84,2.01-1.95V109.82c0-1.11-.92-2.01-2.01-1.95-19.99,1.06-35.87,17.9-35.87,38.52Z"/>
    <circle class="cls-3" cx="247.06" cy="164.29" r="22.28"/>
    <circle class="cls-3" cx="337.95" cy="184.22" r="11.14"/>
    <circle class="cls-3" cx="337.95" cy="41.14" r="11.14"/>
  </g>
</svg>