<?xml version="1.0" encoding="UTF-8"?>
<svg id="Calque_2" data-name="Calque 2" xmlns="http://www.w3.org/2000/svg" viewBox="0 0 449.19 367.65">
  <defs>
    <style>
      .cls-1 {
        fill: #ceb390;
      }

      .cls-2 {
        fill: #bc906d;
      }

      .cls-3 {
        fill: #2146af;
      }

      .cls-4 {
        fill: #0e09a9;
      }
    </style>
  </defs>
  <g id="Calque_1-2" data-name="Calque 1">
    <path class="cls-1" d="M396.82,184.02c28.92,0,52.37-23.45,52.37-52.37s-23.45-52.37-52.37-52.37v104.74Z"/>
    <path class="cls-3" d="M396.63,107.09c13.56,0,24.56,10.99,24.56,24.56,0,13.56-10.99,24.56-24.56,24.56v-49.12Z"/>
    <path class="cls-1" d="M144.19,64.43c-28.92,0-52.37,23.45-52.37,52.37s23.45,52.37,52.37,52.37V64.43Z"/>
    <path class="cls-4" d="M144.19,64.43c28.92,0,52.37,23.45,52.37,52.37,0,28.92-23.45,52.37-52.37,52.37V64.43Z"/>
    <path class="cls-2" d="M144.38,92.24c13.56,0,24.56,10.99,24.56,24.56,0,13.56-10.99,24.56-24.56,24.56v-49.12Z"/>
    <path class="cls-3" d="M144.38,141.36c-13.56,0-24.56-10.99-24.56-24.56,0-13.56,10.99-24.56,24.56-24.56v49.12Z"/>
    <path class="cls-1" d="M231.23,149.74c28.92,0,52.37-23.45,52.37-52.37s-23.45-52.37-52.37-52.37v104.74Z"/>
    <path class="cls-4" d="M231.23,149.74c-28.92,0-52.37-23.45-52.37-52.37,0-28.92,23.45-52.37,52.37-52.37v104.74Z"/>
    <path class="cls-2" d="M231.04,121.93c-13.56,0-24.56-10.99-24.56-24.56,0-13.56,10.99-24.56,24.56-24.56v49.12Z"/>
    <path class="cls-3" d="M231.04,72.81c13.56,0,24.56,10.99,24.56,24.56,0,13.56-10.99,24.56-24.56,24.56v-49.12Z"/>
    <path class="cls-1" d="M282.96,0C267.85,0,255.6,12.25,255.6,27.36s12.25,27.36,27.36,27.36V0Z"/>
    <path class="cls-4" d="M282.96,0c15.11,0,27.36,12.25,27.36,27.36,0,15.11-12.25,27.36-27.36,27.36V0Z"/>
    <path class="cls-2" d="M283.05,14.53c7.08,0,12.83,5.74,12.83,12.83s-5.74,12.83-12.83,12.83V14.53Z"/>
    <path class="cls-3" d="M283.05,40.19c-7.08,0-12.83-5.74-12.83-12.83s5.74-12.83,12.83-12.83v25.66Z"/>
    <path class="cls-1" d="M356.72,273.94c15.11,0,27.36-12.25,27.36-27.36s-12.25-27.36-27.36-27.36v54.71Z"/>
    <path class="cls-4" d="M356.72,273.94c-15.11,0-27.36-12.25-27.36-27.36,0-15.11,12.25-27.36,27.36-27.36v54.71Z"/>
    <path class="cls-2" d="M356.62,259.41c-7.08,0-12.83-5.74-12.83-12.83s5.74-12.83,12.83-12.83v25.66Z"/>
    <path class="cls-3" d="M356.62,233.75c7.08,0,12.83,5.74,12.83,12.83,0,7.08-5.74,12.83-12.83,12.83v-25.66Z"/>
    <path class="cls-1" d="M27.36,104.29c-15.11,0-27.36,12.25-27.36,27.36s12.25,27.36,27.36,27.36v-54.71Z"/>
    <path class="cls-4" d="M27.36,104.29c15.11,0,27.36,12.25,27.36,27.36s-12.25,27.36-27.36,27.36v-54.71Z"/>
    <path class="cls-2" d="M27.45,118.82c7.08,0,12.83,5.74,12.83,12.83s-5.74,12.83-12.83,12.83v-25.66Z"/>
    <path class="cls-3" d="M27.45,144.47c-7.08,0-12.83-5.74-12.83-12.83,0-7.08,5.74-12.83,12.83-12.83v25.66Z"/>
    <path class="cls-1" d="M309.79,98.7c-28.92,0-52.37,23.45-52.37,52.37s23.45,52.37,52.37,52.37V98.7Z"/>
    <path class="cls-4" d="M309.79,98.7c28.92,0,52.37,23.45,52.37,52.37,0,28.92-23.45,52.37-52.37,52.37V98.7Z"/>
    <path class="cls-2" d="M309.97,126.52c13.56,0,24.56,10.99,24.56,24.56,0,13.56-10.99,24.56-24.56,24.56v-49.12Z"/>
    <path class="cls-3" d="M309.97,175.63c-13.56,0-24.56-10.99-24.56-24.56,0-13.56,10.99-24.56,24.56-24.56v49.12Z"/>
    <path class="cls-4" d="M396.82,184.02c-28.92,0-52.37-23.45-52.37-52.37,0-28.92,23.45-52.37,52.37-52.37v104.74Z"/>
    <path class="cls-2" d="M396.63,156.2c-13.56,0-24.56-10.99-24.56-24.56,0-13.56,10.99-24.56,24.56-24.56v49.12Z"/>
    <path class="cls-1" d="M295.88,270.01c-26.96,0-48.82,21.86-48.82,48.82s21.86,48.82,48.82,48.82v-97.64Z"/>
    <path class="cls-4" d="M295.88,270.01c26.96,0,48.82,21.86,48.82,48.82,0,26.96-21.86,48.82-48.82,48.82v-97.64Z"/>
    <path class="cls-2" d="M296.06,295.94c12.64,0,22.89,10.25,22.89,22.89,0,12.64-10.25,22.89-22.89,22.89v-45.79Z"/>
    <path class="cls-3" d="M296.06,341.72c-12.64,0-22.89-10.25-22.89-22.89,0-12.64,10.25-22.89,22.89-22.89v45.79Z"/>
    <path class="cls-1" d="M79.73,107.09c28.92,0,52.37-23.45,52.37-52.37S108.65,2.34,79.73,2.34V107.09Z"/>
    <path class="cls-4" d="M79.73,107.09c-28.92,0-52.37-23.45-52.37-52.37S50.8,2.34,79.73,2.34V107.09Z"/>
    <path class="cls-2" d="M79.54,79.27c-13.56,0-24.56-10.99-24.56-24.56,0-13.56,10.99-24.56,24.56-24.56v49.12Z"/>
    <path class="cls-3" d="M79.54,30.16c13.56,0,24.56,10.99,24.56,24.56s-10.99,24.56-24.56,24.56V30.16Z"/>
  </g>
</svg>