<?xml version="1.0" encoding="UTF-8"?>
<svg id="Calque_2" data-name="Calque 2" xmlns="http://www.w3.org/2000/svg" viewBox="0 0 285.73 439.28">
  <defs>
    <style>
      .cls-1 {
        fill: #ceb390;
      }

      .cls-2 {
        fill: #bc906d;
      }

      .cls-3 {
        fill: #2146af;
      }

      .cls-4 {
        fill: #0e09a9;
      }
    </style>
  </defs>
  <g id="Calque_1-2" data-name="Calque 1">
    <path class="cls-1" d="M198.13,0l-6.16,24.72c11.95,3.07,19.21,15.22,16.22,27.22-2.99,12-15.1,19.32-27.1,16.42l-6.16,24.72c25.71,6.41,51.74-9.24,58.14-34.94,6.41-25.71-9.24-51.74-34.94-58.14Z"/>
    <path class="cls-1" d="M94.52,76.41l-21.89-13.04c-6.39,10.56-20.12,14-30.74,7.67-10.62-6.33-14.14-20.03-7.9-30.68L12.09,27.33C-1.46,50.09,6.01,79.53,28.77,93.08c22.76,13.55,52.2,6.09,65.76-16.67Z"/>
    <path class="cls-1" d="M104.4,382.16l2.62-25.34c-12.27-1.36-21.16-12.37-19.89-24.67,1.27-12.3,12.23-21.25,24.52-20.07l2.62-25.34c-26.35-2.73-49.92,16.42-52.65,42.77-2.73,26.35,16.42,49.92,42.77,52.65Z"/>
    <circle class="cls-3" cx="20.41" cy="353.59" r="20.41"/>
    <circle class="cls-3" cx="265.32" cy="73.06" r="20.41"/>
    <circle class="cls-4" cx="158.43" cy="42.68" r="10.84"/>
    <circle class="cls-4" cx="139.45" cy="259.04" r="8.93"/>
    <circle class="cls-3" cx="226.95" cy="405.49" r="10.84"/>
    <path class="cls-1" d="M143.92,285.97l24.45-7.15c3.55,11.82,15.98,18.58,27.85,15.11s18.69-15.86,15.32-27.74l24.45-7.15c7.44,25.43-7.15,52.07-32.57,59.5-25.43,7.44-52.07-7.15-59.5-32.57Z"/>
    <path class="cls-1" d="M113.8,143.95l15.83,19.97c-9.62,7.74-11.2,21.8-3.52,31.49,7.68,9.69,21.73,11.35,31.46,3.76l15.83,19.97c-20.76,16.46-50.93,12.97-67.39-7.79-16.46-20.76-12.97-50.93,7.79-67.39Z"/>
    <circle class="cls-3" cx="67.42" cy="131.86" r="20.41"/>
    <circle class="cls-4" cx="198.2" cy="186.72" r="20.41"/>
    <path class="cls-2" d="M128.84,356.25c22.93-13.03,52.08-5,65.11,17.92,13.03,22.93,5,52.08-17.92,65.11l-47.18-83.03Z"/>
    <path class="cls-2" d="M164.51,105.13c-4.24,16.58-21.11,26.59-37.69,22.35-16.58-4.24-26.59-21.11-22.35-37.69l60.04,15.34Z"/>
    <path class="cls-2" d="M27.16,298.51c-13.7-8.25-18.12-26.04-9.87-39.74,8.25-13.7,26.04-18.12,39.74-9.87l-29.86,49.61Z"/>
  </g>
</svg>