<?xml version="1.0" encoding="UTF-8"?>
<svg id="Calque_2" data-name="Calque 2" xmlns="http://www.w3.org/2000/svg" viewBox="0 0 312.64 385.22">
  <defs>
    <style>
      .cls-1 {
        fill: #ceb390;
      }

      .cls-2 {
        fill: #bc906d;
      }

      .cls-3 {
        fill: #2146af;
      }

      .cls-4 {
        fill: #0e09a9;
      }
    </style>
  </defs>
  <g id="Calque_1-2" data-name="Calque 1">
    <path class="cls-1" d="M175.47,66.61l-6.16,24.72c11.95,3.07,19.21,15.22,16.22,27.22-2.99,12-15.1,19.32-27.1,16.42l-6.16,24.72c25.71,6.41,51.74-9.24,58.14-34.94s-9.24-51.74-34.94-58.14Z"/>
    <path class="cls-1" d="M278.79,80.29l-13.94-21.33c-10.38,6.68-24.22,3.74-30.99-6.61-6.77-10.35-3.9-24.21,6.38-31.04L226.29,0c-22.17,14.5-28.4,44.22-13.9,66.4,14.5,22.17,44.22,28.4,66.4,13.9Z"/>
    <circle class="cls-3" cx="132.68" cy="72.25" r="20.41"/>
    <circle class="cls-4" cx="222.68" cy="159.51" r="10.84"/>
    <circle class="cls-4" cx="258.42" cy="376.29" r="8.93"/>
    <path class="cls-1" d="M235.1,270.75l-6.16,24.72c11.95,3.07,19.21,15.22,16.22,27.22-2.99,12-15.1,19.32-27.1,16.42l-6.16,24.72c25.71,6.41,51.74-9.24,58.14-34.94,6.41-25.71-9.24-51.74-34.94-58.14Z"/>
    <path class="cls-1" d="M172.64,185.15l-6.16,24.72c-12-2.9-24.11,4.42-27.1,16.42-2.99,12,4.27,24.14,16.22,27.22l-6.16,24.72c-25.71-6.41-41.35-32.44-34.94-58.14,6.41-25.71,32.44-41.35,58.14-34.94Z"/>
    <path class="cls-1" d="M13.65,343.69l24.45-7.15c3.55,11.82,15.98,18.58,27.85,15.11,11.87-3.47,18.69-15.86,15.32-27.74l24.45-7.15c7.44,25.43-7.15,52.07-32.57,59.5-25.43,7.44-52.07-7.15-59.5-32.57Z"/>
    <circle class="cls-3" cx="192.31" cy="276.4" r="20.41"/>
    <circle class="cls-4" cx="69.13" cy="235.82" r="20.41"/>
    <path class="cls-2" d="M312.64,226.68c-6.53,25.55-32.53,40.97-58.08,34.44-25.55-6.53-40.97-32.53-34.44-58.08l92.53,23.64Z"/>
    <path class="cls-2" d="M76.22,13.41c13.85-4.96,29.09,2.25,34.05,16.09,4.96,13.85-2.25,29.09-16.09,34.05L76.22,13.41Z"/>
    <path class="cls-2" d="M82.51,316.53c-13.7-8.25-18.12-26.04-9.87-39.74,8.25-13.7,26.04-18.12,39.74-9.87l-29.86,49.61Z"/>
    <circle class="cls-3" cx="10.84" cy="322.79" r="10.84"/>
  </g>
</svg>