<?xml version="1.0" encoding="UTF-8"?>
<svg id="Calque_2" data-name="Calque 2" xmlns="http://www.w3.org/2000/svg" viewBox="0 0 307.34 415.39">
  <defs>
    <style>
      .cls-1 {
        fill: #ceb390;
      }

      .cls-2 {
        fill: #bc906d;
      }

      .cls-3 {
        fill: #2146af;
      }

      .cls-4 {
        fill: #0e09a9;
      }
    </style>
  </defs>
  <g id="Calque_1-2" data-name="Calque 1">
    <path class="cls-1" d="M137.13,302.92l-10.04,23.42c11.31,4.95,16.52,18.1,11.65,29.47-4.87,11.36-18,16.65-29.38,11.87l-10.04,23.42c24.35,10.44,52.55-.83,62.99-25.17,10.44-24.35-.83-52.55-25.17-62.99Z"/>
    <circle class="cls-3" cx="244.92" cy="217.59" r="20.41"/>
    <circle class="cls-3" cx="147.83" cy="72.52" r="20.41"/>
    <circle class="cls-4" cx="35.08" cy="30.55" r="8.93"/>
    <circle class="cls-4" cx="131.21" cy="208.66" r="8.93"/>
    <circle class="cls-3" cx="174.88" cy="292.76" r="10.84"/>
    <path class="cls-1" d="M213.32,290.27l24.45-7.15c3.55,11.82,15.98,18.58,27.85,15.11s18.69-15.86,15.32-27.74l24.45-7.15c7.44,25.43-7.15,52.07-32.57,59.5-25.43,7.44-52.07-7.15-59.5-32.57Z"/>
    <path class="cls-1" d="M111.79,222.58l-23.98,8.62c-4.26-11.58-17.08-17.58-28.72-13.39-11.64,4.19-17.7,16.97-13.61,28.62l-23.98,8.62c-8.97-24.93,3.97-52.41,28.9-61.37,24.93-8.97,52.41,3.97,61.37,28.9Z"/>
    <path class="cls-1" d="M41.3,61.96l19.45-16.45c8.04,9.36,22.14,10.51,31.59,2.52s10.65-22.08,2.75-31.57L114.55,0c17.11,20.23,14.58,50.49-5.64,67.6-20.23,17.11-50.49,14.58-67.6-5.65Z"/>
    <path class="cls-1" d="M208.5,195.02l-17.01-18.97c9.13-8.31,9.86-22.44,1.6-31.65s-22.38-10.01-31.63-1.84l-17.01-18.97c19.72-17.69,50.05-16.04,67.74,3.68,17.69,19.72,16.04,50.05-3.68,67.74Z"/>
    <circle class="cls-4" cx="190.93" cy="394.98" r="20.41"/>
    <circle class="cls-4" cx="20.41" cy="294.06" r="20.41"/>
    <path class="cls-2" d="M231.08,265.9c-22.1,14.4-51.68,8.16-66.07-13.94-14.4-22.1-8.16-51.68,13.94-66.07l52.14,80.01Z"/>
    <path class="cls-2" d="M81.13,343.18c10.63,11.95,9.55,30.25-2.39,40.88-11.95,10.63-30.25,9.55-40.88-2.39l43.27-38.48Z"/>
    <path class="cls-2" d="M126.54,95.05c3.09,15.69-7.12,30.91-22.81,34.01-15.69,3.09-30.91-7.12-34.01-22.81l56.81-11.2Z"/>
  </g>
</svg>